<?xml version="1.0" encoding="utf-8"?>
<!-- Generator: Adobe Illustrator 20.1.0, SVG Export Plug-In . SVG Version: 6.00 Build 0)  -->
<svg version="1.1" id="Layer_1" xmlns="http://www.w3.org/2000/svg" xmlns:xlink="http://www.w3.org/1999/xlink" x="0px" y="0px"
	 viewBox="0 0 31.9 31.9" style="enable-background:new 0 0 31.9 31.9;" xml:space="preserve">
<style type="text/css">
	.st0{fill:#FFFFFF;}
</style>
<path id="White_2_" class="st0" d="M30.1,0H1.8C0.8,0,0,0.8,0,1.8v28.3c0,1,0.8,1.8,1.8,1.8H17V19.5h-4.2v-4.8H17v-3.5
	c0-4.1,2.5-6.4,6.2-6.4c1.8,0,3.3,0.1,3.7,0.2v4.3l-2.5,0c-2,0-2.4,0.9-2.4,2.3v3.1h4.8l-0.6,4.8H22v12.3h8.1c1,0,1.8-0.8,1.8-1.8
	V1.8C31.9,0.8,31.1,0,30.1,0z"/>
</svg>
