<svg xmlns="http://www.w3.org/2000/svg" height="150" viewBox="0 0 150 150" width="150"><path fill="none" stroke="#fff" stroke-width="6.71" stroke-miterlimit="10" d="M138.4 69.5a93.1 93.1 0 0 0-2-13.9 49.1 49.1 0 0 0-21.7-30.3 67.1 67.1 0 0 0-30.4-9.9A62.5 62.5 0 0 0 66 16.6c-9.4 2-18.2 6.1-26.5 10.7a53 53 0 0 0-9.7 6.5 46.1 46.1 0 0 0-8.1 10.1c-7.2 11.2-12.4 24.5-10 37.6 1.3 6.7 4.5 13 7.8 19.1a111.8 111.8 0 0 0 10.3 16c5.7 7 13 10 21 14.3a40.2 40.2 0 0 0 16.8 5.2c5.9.3 11.6 1.6 17.2-.3a178 178 0 0 0 26.2-11.2c6.8-3.6 13.4-7.7 18.3-13.5 10.3-12.2 10.6-26.4 9.1-41.6z"/><path fill="none" stroke="#fff" stroke-width="6.71" stroke-miterlimit="10" d="M57.3 36.1a12.3 12.3 0 0 0-6.8 1.1 14.9 14.9 0 0 0-5 5 18 18 0 0 0-3.2 6.5c-.8 4.5 1.9 9.1 5.8 11.4a18.6 18.6 0 0 0 13.1 1.8 15 15 0 0 0 3.6-1.1c2.9-1.5 4.7-4.7 5.4-8 2.1-9.1-3.8-16.1-12.9-16.7zm23.1.3a16.4 16.4 0 0 0-6 8 15.3 15.3 0 0 0-.4 9.9 14.1 14.1 0 0 0 14.4 9.5 15.5 15.5 0 0 0 13.1-11.5c1.4-6-1.1-11.7-5.2-16s-11.5-3-15.9.1z"/><path fill="none" stroke="#fff" stroke-width="6.71" stroke-miterlimit="10" d="M48 63.2c-2.8.1-6.1.5-7.4 3.2s-.1 7.4-.2 10.9a96.3 96.3 0 0 0 .4 14.2 5.3 5.3 0 0 0 1.4 3.7 4.5 4.5 0 0 0 3.6.8c16.8-.6 33.6-.6 50.5 0 2.3.1 5 0 6.5-2s1-2.8 1.1-4.4a206.3 206.3 0 0 0 .4-20.8c-.1-1.7-.3-3.7-1.6-4.7a4.9 4.9 0 0 0-2.9-.6c-9.2 0-18.3.2-27.5.1S56.1 63 48 63.2z"/><path fill="none" stroke="#fff" stroke-width="6.71" stroke-miterlimit="10" d="M103.9 72.3l6.6-6.3c1.7-1.5 3.5-3 5.5-2.7a2 2 0 0 1 1.3.6 4.8 4.8 0 0 1 .6 2.4c.6 9.1.8 18.3.6 27.5a7.7 7.7 0 0 1-.2 1.5c-.6 1.6-2.4 1.2-3.7.6a88.4 88.4 0 0 1-11.1-6.7m-40.7 6.1c-3.3 9.2-6.3 16.5-10.4 25.4m20.2-24.1l-.7 27.5m10.9-28.6c2.9 8.3 6.6 17.2 9.8 25.2M65.4 86.9c0 .6.1 1.4.7 1.6a1.4 1.4 0 0 0 1.1-.2 117.4 117.4 0 0 0 13.4-7.5 2 2 0 0 0 .9-.9c.4-.9-.5-1.9-1.4-2.4a53.2 53.2 0 0 0-6.6-3.7 39.6 39.6 0 0 0-6.3-2.9 1.7 1.7 0 0 0-1.4.1c-1.3 1-.5 5.3-.5 6.8s.1 6 .1 9.1z"/><path fill="none" stroke="#00b0cb" stroke-width="10" d="M69 10.3c-9.4 2-24.2 7.4-32.5 12a53 53 0 0 0-9.7 6.5 46.1 46.1 0 0 0-8.1 10.1c-5.4 8.4-9.6 17.9-10.4 27.6" stroke-linecap="round" stroke-linejoin="round"/></svg>