<svg xmlns="http://www.w3.org/2000/svg" height="150" viewBox="0 0 150 150" width="150"><path fill="none" stroke="#fff" stroke-width="6.71" stroke-miterlimit="10" d="M138.4 69.5a93.1 93.1 0 0 0-2-13.9 49.1 49.1 0 0 0-21.7-30.3 67.1 67.1 0 0 0-30.4-9.9A62.5 62.5 0 0 0 66 16.6c-9.4 2-18.2 6.1-26.5 10.7a53 53 0 0 0-9.7 6.5 46.1 46.1 0 0 0-8.1 10.1c-7.2 11.2-12.4 24.5-10 37.6 1.3 6.7 4.5 13 7.8 19.1a111.8 111.8 0 0 0 10.3 16c5.7 7 13 10 21 14.3a40.2 40.2 0 0 0 16.8 5.2c5.9.3 11.6 1.6 17.2-.3a178 178 0 0 0 26.2-11.2c6.8-3.6 13.4-7.7 18.3-13.5 10.3-12.2 10.6-26.4 9.1-41.6z"/><path fill="none" stroke="#fff" stroke-width="6.71" stroke-miterlimit="10" d="M63.8 82.5c-4.6.5-6.6.1-11.2-.5a4.8 4.8 0 0 1-3-1.1 4.5 4.5 0 0 1-.9-3.2c0-2.6.2-5.2.4-7.8l1.5-17.4a1.9 1.9 0 0 1 .5-1.4 2.4 2.4 0 0 1 1.4-.5c3.1-.3 6.2.3 9.4.2a73.8 73.8 0 0 1 9.4-.3M59.8 39a6.4 6.4 0 0 0-4.1 3.6 4.8 4.8 0 0 0-.5 1.7 7.2 7.2 0 0 0 .8 3.2 3.3 3.3 0 0 0 1.4 1.9l1.2.4a11.4 11.4 0 0 0 3.7.3 4.2 4.2 0 0 0 3-1.8c1.1-1.8.4-5.6-.5-7.5s-3.2-2.2-5-1.8z"/><path fill="none" stroke="#fff" stroke-width="6.71" stroke-miterlimit="10" d="M80.8 83.4c.3-9 .3-17.9-.2-26.9a8.4 8.4 0 0 0-1-4.2 4.9 4.9 0 0 0-4.1-1.5 13.2 13.2 0 0 0-6.9 2 11.2 11.2 0 0 0-4.9 6.4 26.1 26.1 0 0 0-.8 5.6c-.2 4.1-2.6 16.1.8 17.8 1.5.6 16 .8 17.1.8zm-2.1-32a41.7 41.7 0 0 1 7.8 5.4 40.9 40.9 0 0 0 3.3 2.8 5.3 5.3 0 0 0 6.4-.2 65.1 65.1 0 0 0 8.3-8.3"/><path fill="none" stroke="#fff" stroke-width="6.71" stroke-miterlimit="10" d="M67.9 39c-1 1.7-1.9 3.6-1.7 5.5s3.2 5.4 6.3 6a5.3 5.3 0 0 0 3.9-.5 6 6 0 0 0 2.1-3.1c1.3-3.5 2.6-8.9-.8-11.9s-7.9.9-9.8 4zm-32.1 83.2h27.7a2.8 2.8 0 0 0 1.8-.4 2.5 2.5 0 0 0 .8-1.4l4.3-13.3a5.3 5.3 0 0 1 1.1-2.1 4.4 4.4 0 0 1 2.9-.8c5.2-.5 10.6-1.2 15.8-1.4 7.5-.3 14.8-1 22.2-1.4m-7.5-69c-.2 7.5-.7 11.6-.4 18.6s-.2 42.4.2 50.7M62.6 81.2a321.5 321.5 0 0 0-5.1 41.6"/><path fill="none" stroke="#fff" stroke-width="6.71" stroke-miterlimit="10" d="M80.8 83.4c3.3 2.1 5.6 3 6.6 3.9a156.8 156.8 0 0 0-5.9 16.2"/><path fill="none" stroke="#ef4923" stroke-width="10" d="M69 10.3c-9.4 2-24.2 7.4-32.5 12a53 53 0 0 0-9.7 6.5 46.1 46.1 0 0 0-8.1 10.1c-5.4 8.4-9.6 17.9-10.4 27.6" stroke-linecap="round" stroke-linejoin="round"/></svg>